<svg width="16" height="16" viewBox="0 0 16 16" fill="none" xmlns="http://www.w3.org/2000/svg">
<path fill-rule="evenodd" clip-rule="evenodd" d="M8 0C12.4183 0 16 3.58172 16 8C16 12.4183 12.4183 16 8 16H0V0H8ZM4.57143 5.71429C3.30906 5.71429 2.28571 6.73763 2.28571 8C2.28571 11.1559 4.84409 13.7143 8 13.7143C9.28664 13.7143 10.4739 13.289 11.429 12.5714C11.4289 12.5714 11.4287 12.5714 11.4286 12.5714C8.90384 12.5714 6.85714 10.5247 6.85714 8C6.85714 6.73763 5.83379 5.71429 4.57143 5.71429ZM8 2.28571C6.71336 2.28571 5.52606 2.71098 4.57093 3.42857C4.57109 3.42857 4.57126 3.42857 4.57143 3.42857C7.09616 3.42857 9.14286 5.47527 9.14286 8C9.14286 9.26237 10.1662 10.2857 11.4286 10.2857C12.6909 10.2857 13.7143 9.26237 13.7143 8C13.7143 4.84409 11.1559 2.28571 8 2.28571Z" fill="#402DF3"/>
</svg>
