<svg xmlns="http://www.w3.org/2000/svg" viewBox="0 0 24 24" fill="none" stroke="currentColor" stroke-width="2" stroke-linecap="round" stroke-linejoin="round">
  <path d="M9.937 15.5A2 2 0 0 0 8.5 14.063l0 0a2 2 0 0 0-1.437 1.437l0 0a2 2 0 0 0 1.437 1.437l0 0a2 2 0 0 0 1.437-1.437Z"/>
  <path d="M14.063 8.5a2 2 0 0 0 1.437-1.437l0 0a2 2 0 0 0 1.437 1.437l0 0a2 2 0 0 0-1.437 1.437l0 0a2 2 0 0 0-1.437-1.437Z"/>
  <path d="M19.5 14.063a2 2 0 0 0-1.437 1.437l0 0a2 2 0 0 0 1.437 1.437l0 0a2 2 0 0 0 1.437-1.437l0 0a2 2 0 0 0-1.437-1.437Z"/>
  <path d="M4.5 9.937a2 2 0 0 0 1.437-1.437l0 0A2 2 0 0 0 4.5 6.063l0 0a2 2 0 0 0-1.437 1.437l0 0A2 2 0 0 0 4.5 9.937Z"/>
</svg>